<svg xmlns="http://www.w3.org/2000/svg" width="840" height="528" viewBox="0 0 840 528" role="img" aria-labelledby="title desc" data-card-theme="auto">
  <title id="title">sample-user on TokensBurned</title><desc id="desc">42.3M AI coding tokens in seven days; ranked #184 of 3512 among TokensBurned users.</desc>
  <defs><linearGradient id="ember" x1="0" x2="1"><stop offset="0" class="gradient-start"/><stop offset="1" class="gradient-end"/></linearGradient></defs>
  <style>
    svg{color-scheme:dark light;--tb-bg:#171513;--tb-frame:#3b3733;--tb-paper:#f4efe5;--tb-muted:#938d85;--tb-accent:#ff6b28;--tb-rank:#ff9a3d;--tb-section:#ff8a45;--tb-row:#ded7cd;--tb-heat0:#292622;--tb-heat1:#63301f;--tb-heat2:#a54121;--tb-heat3:#e45824;--tb-heat4:#ff9a3d;--tb-meme:#211d1a;--tb-gradient-start:#ff5a1f;--tb-gradient-end:#ffb000}
    svg[data-card-theme="light"]{color-scheme:light;--tb-bg:#f5f0e7;--tb-frame:#c9c0b5;--tb-paper:#211d19;--tb-muted:#6f675f;--tb-accent:#d84f1f;--tb-rank:#b63d15;--tb-section:#bf451a;--tb-row:#4b443e;--tb-heat0:#e3dbd0;--tb-heat1:#ffd3bd;--tb-heat2:#ffb184;--tb-heat3:#f47b46;--tb-heat4:#cf481c;--tb-meme:#fff8ee;--tb-gradient-start:#cf461b;--tb-gradient-end:#dc8a00}
    @media(prefers-color-scheme:light){svg[data-card-theme="auto"]{color-scheme:light;--tb-bg:#f5f0e7;--tb-frame:#c9c0b5;--tb-paper:#211d19;--tb-muted:#6f675f;--tb-accent:#d84f1f;--tb-rank:#b63d15;--tb-section:#bf451a;--tb-row:#4b443e;--tb-heat0:#e3dbd0;--tb-heat1:#ffd3bd;--tb-heat2:#ffb184;--tb-heat3:#f47b46;--tb-heat4:#cf481c;--tb-meme:#fff8ee;--tb-gradient-start:#cf461b;--tb-gradient-end:#dc8a00}}
    .bg{fill:var(--tb-bg)}.frame,.rule{stroke:var(--tb-frame)}.frame{fill:none}.paper{fill:var(--tb-paper)}.muted{fill:var(--tb-muted)}.ember{fill:var(--tb-accent)}.bar{fill:url(#ember)}.gradient-start{stop-color:var(--tb-gradient-start)}.gradient-end{stop-color:var(--tb-gradient-end)}
    .heat0{fill:var(--tb-heat0)}.heat1{fill:var(--tb-heat1)}.heat2{fill:var(--tb-heat2)}.heat3{fill:var(--tb-heat3)}.heat4{fill:var(--tb-heat4)}.meme-box{fill:var(--tb-meme);stroke:var(--tb-accent);stroke-width:2}.meme{fill:var(--tb-paper);font-size:15px;font-weight:900;letter-spacing:1px}
    text{font-family:ui-monospace,SFMono-Regular,Menlo,Monaco,Consolas,monospace}.brand{font-size:18px;font-weight:800;letter-spacing:3px}.owner{font-size:12px}.rank{font-size:11px;font-weight:800;letter-spacing:1.5px;fill:var(--tb-rank)}.stat-label,.muted{font-size:11px}.stat{font-size:29px;font-weight:800;fill:var(--tb-paper)}.section{font-size:11px;font-weight:800;letter-spacing:1.8px;fill:var(--tb-section)}.row{font-size:12px;fill:var(--tb-row)}.pct{font-size:11px;font-weight:700;fill:var(--tb-paper)}
  </style>
  <rect width="840" height="528" rx="14" class="bg"/><rect x="1" y="1" width="838" height="526" rx="13" class="frame"/>
  <text x="42" y="53" class="ember brand">🔥 TOKENSBURNED</text>
  <text x="716" y="35" class="rank">#184 OF 3512</text><text x="709" y="55" class="muted owner">@sample-user</text>
  <line x1="42" x2="798" y1="78" y2="78" class="rule"/>
  <text x="42" y="111" class="stat-label muted">PAST 24 HOURS</text><text x="42" y="148" class="stat">8.4M</text><text x="235" y="111" class="stat-label muted">PAST 7 DAYS</text><text x="235" y="148" class="stat">42.3M</text><text x="428" y="111" class="stat-label muted">PAST 30 DAYS</text><text x="428" y="148" class="stat">164.8M</text><text x="621" y="111" class="stat-label muted">ALL TIME</text><text x="621" y="148" class="stat">1.2B</text><line x1="42" x2="798" y1="158" y2="158" class="rule"/><text x="42" y="200" class="section">HARNESSES / 30D</text><text x="42" y="238" class="row">codex</text>
      <text x="242" y="238" class="pct">47%</text>
      <rect x="42" y="251" width="103" height="4" rx="2" class="bar"/><text x="42" y="285" class="row">claude-code</text>
      <text x="242" y="285" class="pct">33%</text>
      <rect x="42" y="298" width="73" height="4" rx="2" class="bar"/><text x="42" y="332" class="row">gemini-cli</text>
      <text x="242" y="332" class="pct">20%</text>
      <rect x="42" y="345" width="44" height="4" rx="2" class="bar"/><text x="310" y="200" class="section">PROVIDERS / 30D</text><text x="310" y="238" class="row">openai</text>
      <text x="510" y="238" class="pct">47%</text>
      <rect x="310" y="251" width="103" height="4" rx="2" class="bar"/><text x="310" y="285" class="row">anthropic</text>
      <text x="510" y="285" class="pct">33%</text>
      <rect x="310" y="298" width="73" height="4" rx="2" class="bar"/><text x="310" y="332" class="row">google</text>
      <text x="510" y="332" class="pct">20%</text>
      <rect x="310" y="345" width="44" height="4" rx="2" class="bar"/><text x="578" y="200" class="section">MODELS / 30D</text><text x="578" y="238" class="row">gpt-5.6-sol</text>
      <text x="778" y="238" class="pct">47%</text>
      <rect x="578" y="251" width="103" height="4" rx="2" class="bar"/><text x="578" y="285" class="row">claude-opus-5</text>
      <text x="778" y="285" class="pct">33%</text>
      <rect x="578" y="298" width="73" height="4" rx="2" class="bar"/><text x="578" y="332" class="row">gemini-3.1-pro</text>
      <text x="778" y="332" class="pct">20%</text>
      <rect x="578" y="345" width="44" height="4" rx="2" class="bar"/><g transform="rotate(-1 420 418)"><rect x="42" y="385" width="756" height="58" rx="4" class="meme-box"/><text x="420" y="422" text-anchor="middle" class="meme">THIS IS FINE. THE CONTEXT WINDOW IS NOT.</text></g>
  <line x1="42" x2="798" y1="463" y2="463" class="rule"/>
  <text x="42" y="504" class="muted">SNAPSHOTS OVERRIDE OVERLAPPING OTEL / NO PROMPTS / NO CODE</text><text x="607" y="504" class="muted">STATIC SAMPLE / FICTIONAL DATA</text>
</svg>