<svg xmlns="http://www.w3.org/2000/svg" width="840" height="505" viewBox="0 0 840 505" role="img" aria-labelledby="title desc">
  <title id="title">sample-user on TokensBurned</title><desc id="desc">42.3M AI coding tokens in seven days; ranked #184 of 3512 among TokensBurned users.</desc>
  <defs><linearGradient id="ember" x1="0" x2="1"><stop offset="0" stop-color="#ff5a1f"/><stop offset="1" stop-color="#ffb000"/></linearGradient></defs>
  <style>
    .bg{fill:#171513}.frame,.rule{stroke:#3b3733}.frame{fill:none}.paper{fill:#f4efe5}.muted{fill:#938d85}.ember{fill:#ff6b28}.bar{fill:url(#ember)}
    .heat0{fill:#292622}.heat1{fill:#63301f}.heat2{fill:#a54121}.heat3{fill:#e45824}.heat4{fill:#ff9a3d}.meme-box{fill:#211d1a;stroke:#ff6b28;stroke-width:2}.meme{fill:#f4efe5;font-size:15px;font-weight:900;letter-spacing:1px}
    text{font-family:ui-monospace,SFMono-Regular,Menlo,Monaco,Consolas,monospace}.brand{font-size:18px;font-weight:800;letter-spacing:3px}.owner{font-size:12px}.rank{font-size:11px;font-weight:800;letter-spacing:1.5px;fill:#ff9a3d}.stat-label,.muted{font-size:11px}.stat{font-size:29px;font-weight:800;fill:#f4efe5}.section{font-size:11px;font-weight:800;letter-spacing:1.8px;fill:#ff8a45}.row{font-size:12px;fill:#ded7cd}.pct{font-size:11px;font-weight:700;fill:#f4efe5}
  </style>
  <rect width="840" height="505" rx="14" class="bg"/><rect x="1" y="1" width="838" height="503" rx="13" class="frame"/>
  <text x="42" y="53" class="ember brand">🔥 TOKENSBURNED</text>
  <text x="716" y="35" class="rank">#184 OF 3512</text><text x="709" y="55" class="muted owner">@sample-user</text>
  <line x1="42" x2="798" y1="78" y2="78" class="rule"/>
  <text x="42" y="111" class="stat-label muted">PAST 24 HOURS</text><text x="42" y="148" class="stat">8.4M</text><text x="235" y="111" class="stat-label muted">PAST 7 DAYS</text><text x="235" y="148" class="stat">42.3M</text><text x="428" y="111" class="stat-label muted">PAST 30 DAYS</text><text x="428" y="148" class="stat">164.8M</text><text x="621" y="111" class="stat-label muted">ALL TIME</text><text x="621" y="148" class="stat">1.2B</text><text x="42" y="204" class="section">DAILY HEAT / 12 WEEKS</text><text x="340" y="204" class="section">ACTIVE HOURS / 30 DAYS UTC</text>
  <text x="42" y="231" class="muted">7 DAYS / COLUMN</text><text x="42" y="395" class="muted">12 WEEKS AGO</text><text x="220" y="395" class="muted">NOW</text>
  <rect x="42" y="250" width="13" height="13" rx="2" class="heat0"><title>2026-06-08 | 0 tokens</title></rect><rect x="42" y="268" width="13" height="13" rx="2" class="heat2"><title>2026-06-09 | 1.8M tokens</title></rect><rect x="42" y="286" width="13" height="13" rx="2" class="heat3"><title>2026-06-10 | 4.2M tokens</title></rect><rect x="42" y="304" width="13" height="13" rx="2" class="heat4"><title>2026-06-11 | 7.4M tokens</title></rect><rect x="42" y="322" width="13" height="13" rx="2" class="heat3"><title>2026-06-12 | 2.8M tokens</title></rect><rect x="42" y="340" width="13" height="13" rx="2" class="heat4"><title>2026-06-13 | 9.6M tokens</title></rect><rect x="42" y="358" width="13" height="13" rx="2" class="heat4"><title>2026-06-14 | 6.1M tokens</title></rect><rect x="60" y="250" width="13" height="13" rx="2" class="heat0"><title>2026-06-15 | 0 tokens</title></rect><rect x="60" y="268" width="13" height="13" rx="2" class="heat2"><title>2026-06-16 | 1.8M tokens</title></rect><rect x="60" y="286" width="13" height="13" rx="2" class="heat3"><title>2026-06-17 | 4.2M tokens</title></rect><rect x="60" y="304" width="13" height="13" rx="2" class="heat4"><title>2026-06-18 | 7.4M tokens</title></rect><rect x="60" y="322" width="13" height="13" rx="2" class="heat3"><title>2026-06-19 | 2.8M tokens</title></rect><rect x="60" y="340" width="13" height="13" rx="2" class="heat4"><title>2026-06-20 | 9.6M tokens</title></rect><rect x="60" y="358" width="13" height="13" rx="2" class="heat4"><title>2026-06-21 | 6.1M tokens</title></rect><rect x="78" y="250" width="13" height="13" rx="2" class="heat0"><title>2026-06-22 | 0 tokens</title></rect><rect x="78" y="268" width="13" height="13" rx="2" class="heat2"><title>2026-06-23 | 1.8M tokens</title></rect><rect x="78" y="286" width="13" height="13" rx="2" class="heat3"><title>2026-06-24 | 4.2M tokens</title></rect><rect x="78" y="304" width="13" height="13" rx="2" class="heat4"><title>2026-06-25 | 7.4M tokens</title></rect><rect x="78" y="322" width="13" height="13" rx="2" class="heat3"><title>2026-06-26 | 2.8M tokens</title></rect><rect x="78" y="340" width="13" height="13" rx="2" class="heat4"><title>2026-06-27 | 9.6M tokens</title></rect><rect x="78" y="358" width="13" height="13" rx="2" class="heat4"><title>2026-06-28 | 6.1M tokens</title></rect><rect x="96" y="250" width="13" height="13" rx="2" class="heat0"><title>2026-06-29 | 0 tokens</title></rect><rect x="96" y="268" width="13" height="13" rx="2" class="heat2"><title>2026-06-30 | 1.8M tokens</title></rect><rect x="96" y="286" width="13" height="13" rx="2" class="heat3"><title>2026-07-01 | 4.2M tokens</title></rect><rect x="96" y="304" width="13" height="13" rx="2" class="heat4"><title>2026-07-02 | 7.4M tokens</title></rect><rect x="96" y="322" width="13" height="13" rx="2" class="heat3"><title>2026-07-03 | 2.8M tokens</title></rect><rect x="96" y="340" width="13" height="13" rx="2" class="heat4"><title>2026-07-04 | 9.6M tokens</title></rect><rect x="96" y="358" width="13" height="13" rx="2" class="heat4"><title>2026-07-05 | 6.1M tokens</title></rect><rect x="114" y="250" width="13" height="13" rx="2" class="heat0"><title>2026-07-06 | 0 tokens</title></rect><rect x="114" y="268" width="13" height="13" rx="2" class="heat2"><title>2026-07-07 | 1.8M tokens</title></rect><rect x="114" y="286" width="13" height="13" rx="2" class="heat3"><title>2026-07-08 | 4.2M tokens</title></rect><rect x="114" y="304" width="13" height="13" rx="2" class="heat4"><title>2026-07-09 | 7.4M tokens</title></rect><rect x="114" y="322" width="13" height="13" rx="2" class="heat3"><title>2026-07-10 | 2.8M tokens</title></rect><rect x="114" y="340" width="13" height="13" rx="2" class="heat4"><title>2026-07-11 | 9.6M tokens</title></rect><rect x="114" y="358" width="13" height="13" rx="2" class="heat4"><title>2026-07-12 | 6.1M tokens</title></rect><rect x="132" y="250" width="13" height="13" rx="2" class="heat0"><title>2026-07-13 | 0 tokens</title></rect><rect x="132" y="268" width="13" height="13" rx="2" class="heat2"><title>2026-07-14 | 1.8M tokens</title></rect><rect x="132" y="286" width="13" height="13" rx="2" class="heat3"><title>2026-07-15 | 4.2M tokens</title></rect><rect x="132" y="304" width="13" height="13" rx="2" class="heat4"><title>2026-07-16 | 7.4M tokens</title></rect><rect x="132" y="322" width="13" height="13" rx="2" class="heat3"><title>2026-07-17 | 2.8M tokens</title></rect><rect x="132" y="340" width="13" height="13" rx="2" class="heat4"><title>2026-07-18 | 9.6M tokens</title></rect><rect x="132" y="358" width="13" height="13" rx="2" class="heat4"><title>2026-07-19 | 6.1M tokens</title></rect><rect x="150" y="250" width="13" height="13" rx="2" class="heat0"><title>2026-07-20 | 0 tokens</title></rect><rect x="150" y="268" width="13" height="13" rx="2" class="heat2"><title>2026-07-21 | 1.8M tokens</title></rect><rect x="150" y="286" width="13" height="13" rx="2" class="heat3"><title>2026-07-22 | 4.2M tokens</title></rect><rect x="150" y="304" width="13" height="13" rx="2" class="heat4"><title>2026-07-23 | 7.4M tokens</title></rect><rect x="150" y="322" width="13" height="13" rx="2" class="heat3"><title>2026-07-24 | 2.8M tokens</title></rect><rect x="150" y="340" width="13" height="13" rx="2" class="heat4"><title>2026-07-25 | 9.6M tokens</title></rect><rect x="150" y="358" width="13" height="13" rx="2" class="heat4"><title>2026-07-26 | 6.1M tokens</title></rect><rect x="168" y="250" width="13" height="13" rx="2" class="heat0"><title>2026-07-27 | 0 tokens</title></rect><rect x="168" y="268" width="13" height="13" rx="2" class="heat2"><title>2026-07-28 | 1.8M tokens</title></rect><rect x="168" y="286" width="13" height="13" rx="2" class="heat3"><title>2026-07-29 | 4.2M tokens</title></rect><rect x="168" y="304" width="13" height="13" rx="2" class="heat4"><title>2026-07-30 | 7.4M tokens</title></rect><rect x="168" y="322" width="13" height="13" rx="2" class="heat3"><title>2026-07-31 | 2.8M tokens</title></rect><rect x="168" y="340" width="13" height="13" rx="2" class="heat4"><title>2026-08-01 | 9.6M tokens</title></rect><rect x="168" y="358" width="13" height="13" rx="2" class="heat4"><title>2026-08-02 | 6.1M tokens</title></rect><rect x="186" y="250" width="13" height="13" rx="2" class="heat0"><title>2026-08-03 | 0 tokens</title></rect><rect x="186" y="268" width="13" height="13" rx="2" class="heat2"><title>2026-08-04 | 1.8M tokens</title></rect><rect x="186" y="286" width="13" height="13" rx="2" class="heat3"><title>2026-08-05 | 4.2M tokens</title></rect><rect x="186" y="304" width="13" height="13" rx="2" class="heat4"><title>2026-08-06 | 7.4M tokens</title></rect><rect x="186" y="322" width="13" height="13" rx="2" class="heat3"><title>2026-08-07 | 2.8M tokens</title></rect><rect x="186" y="340" width="13" height="13" rx="2" class="heat4"><title>2026-08-08 | 9.6M tokens</title></rect><rect x="186" y="358" width="13" height="13" rx="2" class="heat4"><title>2026-08-09 | 6.1M tokens</title></rect><rect x="204" y="250" width="13" height="13" rx="2" class="heat0"><title>2026-08-10 | 0 tokens</title></rect><rect x="204" y="268" width="13" height="13" rx="2" class="heat2"><title>2026-08-11 | 1.8M tokens</title></rect><rect x="204" y="286" width="13" height="13" rx="2" class="heat3"><title>2026-08-12 | 4.2M tokens</title></rect><rect x="204" y="304" width="13" height="13" rx="2" class="heat4"><title>2026-08-13 | 7.4M tokens</title></rect><rect x="204" y="322" width="13" height="13" rx="2" class="heat3"><title>2026-08-14 | 2.8M tokens</title></rect><rect x="204" y="340" width="13" height="13" rx="2" class="heat4"><title>2026-08-15 | 9.6M tokens</title></rect><rect x="204" y="358" width="13" height="13" rx="2" class="heat4"><title>2026-08-16 | 6.1M tokens</title></rect><rect x="222" y="250" width="13" height="13" rx="2" class="heat0"><title>2026-08-17 | 0 tokens</title></rect><rect x="222" y="268" width="13" height="13" rx="2" class="heat2"><title>2026-08-18 | 1.8M tokens</title></rect><rect x="222" y="286" width="13" height="13" rx="2" class="heat3"><title>2026-08-19 | 4.2M tokens</title></rect><rect x="222" y="304" width="13" height="13" rx="2" class="heat4"><title>2026-08-20 | 7.4M tokens</title></rect><rect x="222" y="322" width="13" height="13" rx="2" class="heat3"><title>2026-08-21 | 2.8M tokens</title></rect><rect x="222" y="340" width="13" height="13" rx="2" class="heat4"><title>2026-08-22 | 9.6M tokens</title></rect><rect x="222" y="358" width="13" height="13" rx="2" class="heat4"><title>2026-08-23 | 6.1M tokens</title></rect><rect x="240" y="250" width="13" height="13" rx="2" class="heat0"><title>2026-08-24 | 0 tokens</title></rect><rect x="240" y="268" width="13" height="13" rx="2" class="heat2"><title>2026-08-25 | 1.8M tokens</title></rect><rect x="240" y="286" width="13" height="13" rx="2" class="heat3"><title>2026-08-26 | 4.2M tokens</title></rect><rect x="240" y="304" width="13" height="13" rx="2" class="heat4"><title>2026-08-27 | 7.4M tokens</title></rect><rect x="240" y="322" width="13" height="13" rx="2" class="heat3"><title>2026-08-28 | 2.8M tokens</title></rect><rect x="240" y="340" width="13" height="13" rx="2" class="heat4"><title>2026-08-29 | 9.6M tokens</title></rect><rect x="240" y="358" width="13" height="13" rx="2" class="heat4"><title>2026-08-30 | 6.1M tokens</title></rect><rect x="340" y="268" width="13" height="72" rx="2" class="heat2"><title>00:00 UTC | 800.0K tokens in 30 days</title></rect><rect x="358" y="268" width="13" height="72" rx="2" class="heat1"><title>01:00 UTC | 500.0K tokens in 30 days</title></rect><rect x="376" y="268" width="13" height="72" rx="2" class="heat1"><title>02:00 UTC | 300.0K tokens in 30 days</title></rect><rect x="394" y="268" width="13" height="72" rx="2" class="heat1"><title>03:00 UTC | 200.0K tokens in 30 days</title></rect><rect x="412" y="268" width="13" height="72" rx="2" class="heat1"><title>04:00 UTC | 200.0K tokens in 30 days</title></rect><rect x="430" y="268" width="13" height="72" rx="2" class="heat1"><title>05:00 UTC | 500.0K tokens in 30 days</title></rect><rect x="448" y="268" width="13" height="72" rx="2" class="heat2"><title>06:00 UTC | 1.2M tokens in 30 days</title></rect><rect x="466" y="268" width="13" height="72" rx="2" class="heat3"><title>07:00 UTC | 2.8M tokens in 30 days</title></rect><rect x="484" y="268" width="13" height="72" rx="2" class="heat3"><title>08:00 UTC | 4.2M tokens in 30 days</title></rect><rect x="502" y="268" width="13" height="72" rx="2" class="heat4"><title>09:00 UTC | 5.8M tokens in 30 days</title></rect><rect x="520" y="268" width="13" height="72" rx="2" class="heat4"><title>10:00 UTC | 6.6M tokens in 30 days</title></rect><rect x="538" y="268" width="13" height="72" rx="2" class="heat4"><title>11:00 UTC | 7.4M tokens in 30 days</title></rect><rect x="556" y="268" width="13" height="72" rx="2" class="heat4"><title>12:00 UTC | 8.2M tokens in 30 days</title></rect><rect x="574" y="268" width="13" height="72" rx="2" class="heat4"><title>13:00 UTC | 7.6M tokens in 30 days</title></rect><rect x="592" y="268" width="13" height="72" rx="2" class="heat4"><title>14:00 UTC | 6.8M tokens in 30 days</title></rect><rect x="610" y="268" width="13" height="72" rx="2" class="heat4"><title>15:00 UTC | 6.4M tokens in 30 days</title></rect><rect x="628" y="268" width="13" height="72" rx="2" class="heat4"><title>16:00 UTC | 7.2M tokens in 30 days</title></rect><rect x="646" y="268" width="13" height="72" rx="2" class="heat4"><title>17:00 UTC | 8.8M tokens in 30 days</title></rect><rect x="664" y="268" width="13" height="72" rx="2" class="heat4"><title>18:00 UTC | 9.6M tokens in 30 days</title></rect><rect x="682" y="268" width="13" height="72" rx="2" class="heat4"><title>19:00 UTC | 8.4M tokens in 30 days</title></rect><rect x="700" y="268" width="13" height="72" rx="2" class="heat4"><title>20:00 UTC | 6.2M tokens in 30 days</title></rect><rect x="718" y="268" width="13" height="72" rx="2" class="heat3"><title>21:00 UTC | 4.1M tokens in 30 days</title></rect><rect x="736" y="268" width="13" height="72" rx="2" class="heat3"><title>22:00 UTC | 2.6M tokens in 30 days</title></rect><rect x="754" y="268" width="13" height="72" rx="2" class="heat2"><title>23:00 UTC | 1.4M tokens in 30 days</title></rect>
  <text x="340" y="250" class="muted">00</text><text x="448" y="250" class="muted">06</text><text x="556" y="250" class="muted">12</text><text x="664" y="250" class="muted">18</text><text x="772" y="250" class="muted">23</text>
  <text x="340" y="395" class="muted">1,842 REQUESTS IN 30 DAYS</text>
  <line x1="42" x2="798" y1="440" y2="440" class="rule"/>
  <text x="42" y="481" class="muted">SNAPSHOTS OVERRIDE OVERLAPPING OTEL / NO PROMPTS / NO CODE</text><text x="607" y="481" class="muted">STATIC SAMPLE / FICTIONAL DATA</text>
</svg>